<svg xmlns="http://www.w3.org/2000/svg" width="58" height="57" fill="none" viewBox="0 0 58 57"><path fill="#fff" d="M29.407 8.766V.408A.408.408 0 0 0 28.71.12a.408.408 0 0 0-.12.288v8.358h.818ZM18.738 11.617c.234-.143.471-.278.709-.408l-4.193-7.23a.41.41 0 0 0-.708.408l4.192 7.23ZM4.299 14.187a.408.408 0 0 0 .147.555l7.242 4.195c.131-.237.266-.474.41-.706L4.86 14.035a.41.41 0 0 0-.561.152ZM43.565 3.48a.41.41 0 0 0-.561.147l-4.422 7.598c.237.135.475.27.708.409l4.422-7.594a.408.408 0 0 0-.148-.56ZM53.951 14.57a.41.41 0 0 0 .045-.679.41.41 0 0 0-.454-.027l-7.62 4.4c.14.228.275.465.41.706l7.619-4.4ZM9.212 28.5v-.409H.409a.41.41 0 0 0-.29.698.41.41 0 0 0 .29.12h8.815c-.004-.135-.012-.27-.012-.409ZM57.59 28.091h-8.814v.818h8.815A.41.41 0 0 0 58 28.5a.408.408 0 0 0-.41-.409ZM53.55 42.258l-7.238-4.195c-.131.237-.267.473-.41.706l7.238 4.196a.411.411 0 0 0 .452-.033.409.409 0 0 0-.042-.674ZM4.045 42.43a.41.41 0 1 0 .413.706l7.62-4.395c-.144-.233-.275-.47-.41-.711l-7.623 4.4ZM39.262 45.383c-.234.143-.471.277-.713.408l4.193 7.23a.41.41 0 0 0 .749-.1.407.407 0 0 0-.041-.308l-4.188-7.23ZM14.284 52.96a.408.408 0 0 0 .46.6.41.41 0 0 0 .248-.187l4.426-7.598c-.242-.135-.48-.266-.708-.409l-4.426 7.594ZM28.589 48.234v8.358a.408.408 0 0 0 .698.288.408.408 0 0 0 .12-.288v-8.358h-.818ZM42.88 21.196a.614.614 0 1 0-.613-1.062l-11.64 6.72a2.313 2.313 0 0 0-2.524-.502 2.312 2.312 0 0 0-.75.502l-8.308-4.833a.618.618 0 0 0-.843.221.614.614 0 0 0 .221.841l8.336 4.829a2.306 2.306 0 0 0 1.027 2.546 2.32 2.32 0 0 0 3.324-1.008c.137-.298.208-.622.21-.95-.001-.197-.027-.394-.079-.584l11.64-6.72Zm-13.882 8.415a1.095 1.095 0 0 1-1.01-.673 1.088 1.088 0 0 1 .797-1.487 1.095 1.095 0 0 1 1.306 1.07 1.09 1.09 0 0 1-1.093 1.07v.02Z"/></svg>