<svg xmlns="http://www.w3.org/2000/svg" width="72" height="71" fill="none" viewBox="0 0 72 71"><path fill="#fff" d="M36.506 10.92V.508a.51.51 0 0 0-1.017 0v10.41h1.017ZM23.261 14.47c.29-.177.585-.345.88-.508l-5.205-9.006a.508.508 0 0 0-.879.509l5.204 9.006ZM5.336 17.671a.51.51 0 0 0 .183.692l8.99 5.226c.163-.295.331-.59.509-.88l-8.985-5.226a.506.506 0 0 0-.697.188ZM54.08 4.335a.508.508 0 0 0-.696.183l-5.489 9.464c.295.168.59.336.88.509l5.488-9.459a.51.51 0 0 0-.183-.697ZM66.974 18.15a.508.508 0 1 0-.509-.88l-9.458 5.48c.173.284.34.58.509.88l9.458-5.48ZM11.435 35.5v-.509H.508a.508.508 0 0 0 0 1.018H11.45c-.005-.168-.015-.336-.015-.509ZM71.492 34.991H60.55v1.018h10.942a.508.508 0 0 0 0-1.018ZM66.476 52.637 57.49 47.41c-.162.295-.33.59-.508.88l8.985 5.226a.507.507 0 0 0 .509-.88ZM5.021 52.85a.507.507 0 0 0-.183.698.509.509 0 0 0 .697.183l9.458-5.475c-.178-.29-.34-.585-.509-.885l-9.463 5.48ZM48.739 56.53c-.29.177-.585.345-.885.508l5.205 9.006a.51.51 0 0 0 .442.255.509.509 0 0 0 .437-.763l-5.2-9.007ZM17.732 65.968a.509.509 0 0 0 .88.514l5.493-9.464c-.3-.168-.595-.331-.88-.509l-5.493 9.459ZM35.49 60.08v10.411a.51.51 0 0 0 1.016 0v-10.41h-1.017ZM53.231 26.402a.763.763 0 0 0-.762-1.323L38.02 33.45a2.871 2.871 0 0 0-4.066 0L23.643 27.43a.765.765 0 0 0-1.127.856.766.766 0 0 0 .354.467l10.348 6.014a2.885 2.885 0 0 0 1.275 3.172A2.875 2.875 0 0 0 38.88 35.5c0-.246-.033-.49-.096-.728l14.448-8.37ZM35.998 36.884a1.356 1.356 0 0 1-1.331-1.624 1.36 1.36 0 0 1 1.85-.99 1.357 1.357 0 0 1 .837 1.255 1.359 1.359 0 0 1-1.356 1.334v.025Z"/></svg>